<svg width="344" height="284" viewBox="0 0 344 284" fill="none" xmlns="http://www.w3.org/2000/svg">
<g filter="url(#filter0_d)">
<path d="M327.859 150.964L157.86 249.328C154.33 251.364 150.327 252.435 146.253 252.435C142.179 252.435 138.176 251.364 134.646 249.328L15.1815 180.748C13.5711 179.822 12.2334 178.488 11.3032 176.88C10.373 175.271 9.88318 173.447 9.88318 171.589C9.88318 169.731 10.373 167.906 11.3032 166.298C12.2334 164.69 13.5711 163.355 15.1815 162.429L192.9 59.7948L327.695 134.704C329.142 135.503 330.352 136.673 331.2 138.093C332.047 139.513 332.503 141.132 332.52 142.786C332.536 144.44 332.114 146.068 331.295 147.505C330.476 148.942 329.29 150.136 327.859 150.964Z" fill="#FF8E31"/>
<path d="M140.121 137.934L92.7294 166.481C92.7294 166.481 152.954 200.995 176.42 214.934L225.608 187.078" fill="url(#paint0_linear)"/>
<path d="M95.9487 169.733L48.5681 198.268C48.5681 198.268 63.2739 207.915 86.685 221.8L136.847 190.998" fill="url(#paint1_linear)"/>
<path d="M103.723 135.317V138.547L105.366 140.562" fill="#ADCEE1"/>
<path d="M168.81 95.8749L105.585 135.054C105.006 135.412 104.53 135.915 104.204 136.513C103.879 137.111 103.714 137.783 103.728 138.464C103.741 139.145 103.931 139.81 104.28 140.395C104.629 140.98 105.124 141.464 105.716 141.799L201.66 196.078C202.998 196.836 204.513 197.227 206.05 197.214C207.588 197.2 209.095 196.782 210.42 196.002L273.35 159.002C277.927 155.246 277.576 148.172 273.35 147.877L177.975 95.7326C176.578 94.9241 174.987 94.5103 173.373 94.5353C171.759 94.5604 170.182 95.0234 168.81 95.8749Z" fill="#88D3D8"/>
<path d="M168.81 93.1922L105.585 132.371C105.006 132.73 104.53 133.232 104.204 133.83C103.879 134.428 103.714 135.101 103.728 135.781C103.741 136.462 103.931 137.128 104.28 137.712C104.629 138.297 105.124 138.781 105.716 139.117L201.66 193.33C202.998 194.087 204.513 194.479 206.05 194.465C207.588 194.452 209.095 194.034 210.42 193.253L273.35 156.253C274.088 155.825 274.702 155.21 275.128 154.47C275.554 153.73 275.779 152.891 275.779 152.038C275.779 151.184 275.554 150.345 275.128 149.605C274.702 148.865 274.088 148.25 273.35 147.822L177.975 92.9732C176.571 92.1762 174.976 91.7755 173.362 91.8141C171.748 91.8527 170.175 92.329 168.81 93.1922Z" fill="white"/>
<path d="M171.383 87.8377C171.383 87.8377 197.663 3.10659 197.477 3.10659C197.291 3.10659 198.298 -0.660207 202.952 1.46409L303.692 60.7693C303.692 60.7693 308.576 62.7513 307.623 67.3393C306.671 71.9274 281.956 150.253 281.956 150.253C281.44 150.998 280.7 151.558 279.844 151.854C278.987 152.149 278.059 152.164 277.193 151.895C274.127 150.943 173.694 92.601 173.694 92.601C172.773 92.2522 172.021 91.5644 171.591 90.6788C171.162 89.7931 171.087 88.7766 171.383 87.8377Z" fill="#012032"/>
<path d="M199.141 9.2605L302.323 69.4089L280.916 141.252L176.42 82.8883L199.141 9.2605Z" fill="#0A297C"/>
<path d="M164.923 102.171L141.807 116.57C141.4 116.827 141.065 117.185 140.837 117.609C140.608 118.033 140.493 118.509 140.503 118.991C140.513 119.473 140.648 119.943 140.893 120.358C141.139 120.772 141.488 121.116 141.906 121.356L224.874 168.649C226.114 169.365 227.521 169.742 228.953 169.742C230.385 169.742 231.792 169.365 233.032 168.649C238.365 165.539 247.552 159.889 253.169 156.494C253.68 156.192 254.103 155.76 254.396 155.243C254.688 154.726 254.84 154.141 254.836 153.547C254.831 152.953 254.671 152.37 254.371 151.858C254.071 151.345 253.641 150.92 253.125 150.625C236.35 140.869 181.6 109.015 169.609 102.073C168.894 101.658 168.079 101.448 167.252 101.465C166.426 101.483 165.62 101.727 164.923 102.171Z" fill="#0A297C"/>
<path d="M166.16 141.252L195.145 157.556C195.589 157.809 195.958 158.174 196.215 158.616C196.472 159.057 196.607 159.559 196.607 160.069C196.607 160.58 196.472 161.082 196.215 161.523C195.958 161.964 195.589 162.33 195.145 162.582L178.15 172.525C177.565 172.864 176.9 173.043 176.223 173.043C175.546 173.043 174.882 172.864 174.296 172.525L144.632 155.662C144.261 155.451 143.953 155.145 143.738 154.775C143.524 154.406 143.411 153.987 143.411 153.56C143.411 153.133 143.524 152.713 143.738 152.344C143.953 151.975 144.261 151.669 144.632 151.457L162.36 141.274C162.938 140.941 163.591 140.764 164.257 140.76C164.924 140.756 165.579 140.926 166.16 141.252Z" fill="#0A297C"/>
<path opacity="0.1" d="M164.923 102.171L141.807 116.57C141.4 116.827 141.065 117.185 140.837 117.609C140.608 118.033 140.493 118.509 140.503 118.991C140.513 119.473 140.648 119.943 140.893 120.358C141.139 120.772 141.488 121.116 141.906 121.356L224.874 168.649C226.114 169.365 227.521 169.742 228.953 169.742C230.385 169.742 231.792 169.365 233.032 168.649C238.365 165.539 247.552 159.889 253.169 156.494C253.68 156.192 254.103 155.76 254.396 155.243C254.688 154.726 254.84 154.141 254.836 153.547C254.831 152.953 254.671 152.37 254.371 151.858C254.071 151.345 253.641 150.92 253.125 150.625C236.35 140.869 181.6 109.015 169.609 102.073C168.894 101.658 168.079 101.448 167.252 101.465C166.426 101.483 165.62 101.727 164.923 102.171Z" fill="#053855"/>
<path opacity="0.1" d="M166.16 141.252L195.145 157.556C195.589 157.809 195.958 158.174 196.215 158.616C196.472 159.057 196.607 159.559 196.607 160.069C196.607 160.58 196.472 161.082 196.215 161.523C195.958 161.964 195.589 162.33 195.145 162.582L178.15 172.525C177.565 172.864 176.9 173.043 176.223 173.043C175.546 173.043 174.882 172.864 174.296 172.525L144.632 155.662C144.261 155.451 143.953 155.145 143.738 154.775C143.524 154.406 143.411 153.987 143.411 153.56C143.411 153.133 143.524 152.713 143.738 152.344C143.953 151.975 144.261 151.669 144.632 151.457L162.36 141.274C162.938 140.941 163.591 140.764 164.257 140.76C164.924 140.756 165.579 140.926 166.16 141.252Z" fill="#053855"/>
<path d="M164.507 44.6947C163.621 44.0516 162.684 43.4839 161.703 42.9975C158.824 41.5302 157.959 39.9314 159.13 36.8873C161.484 30.7444 152.856 19.3016 145.99 22.0282C141.61 23.7802 138.03 28.7077 136.595 33.0877C135.939 34.9769 135.847 37.0166 136.332 38.9569C136.781 40.5665 138.73 42.2419 136.88 43.5231C133.726 45.8007 128.864 46.6767 127.726 50.9691C127.556 51.5538 127.511 52.1674 127.592 52.7707C127.673 53.374 127.879 53.9538 128.197 54.4731C128.658 55.0871 129.241 55.5988 129.91 55.9757C130.58 56.3527 131.32 56.5868 132.084 56.6631C134.767 57.0901 133.901 57.4296 133.299 59.5539C131.613 65.4669 137.548 67.2189 142.234 67.8211C148.071 68.5329 155.276 69.168 160.696 66.3976C162.328 65.5654 163.872 64.2076 163.981 62.2695C164.091 60.3313 160.959 58.3603 161.791 56.2689C162.042 55.7707 162.419 55.3476 162.886 55.0425C164.496 53.7175 166.653 52.6335 167.266 50.4763C167.792 47.9359 166.357 46.0744 164.507 44.6947Z" fill="#96D88D"/>
<path d="M164.507 44.7056C163.621 44.0625 162.684 43.4948 161.704 43.0084C158.824 41.5411 157.959 39.9424 159.13 36.8983C160.302 33.8542 158.725 29.3975 155.988 26.1016C156.178 27.0277 156.208 27.9796 156.075 28.9157C155.473 33.2957 147.173 39.4277 151.148 43.0084C153.622 45.1984 163.959 47.3884 158.167 52.4364C156.239 54.1117 153.228 54.3088 154.63 57.6486C155.232 59.083 156.973 59.9152 157.685 61.3278C158.681 63.3097 158.583 64.8208 156.864 66.3538C155.298 67.588 153.381 68.2935 151.389 68.3686C154.613 68.3891 157.801 67.6856 160.718 66.31C162.35 65.4778 163.894 64.12 164.003 62.1819C164.113 60.2437 160.981 58.2727 161.813 56.1813C162.064 55.6831 162.441 55.26 162.908 54.9549C164.518 53.6299 166.675 52.5459 167.288 50.3887C167.792 47.9468 166.357 46.0853 164.507 44.7056Z" fill="#7EC971"/>
<path d="M144.26 60.397C141.446 57.7142 137.603 57.0353 133.858 57.1777C133.907 57.2646 133.933 57.3625 133.934 57.4624C133.954 57.5489 133.954 57.6387 133.934 57.7252V57.7909C137.504 57.6595 141.172 58.2617 143.855 60.824C145.875 62.8886 147.246 65.5003 147.797 68.3357H148.476C147.885 65.3313 146.418 62.5689 144.26 60.397Z" fill="#378729"/>
<path d="M151.706 62.4009C151.305 62.9703 150.94 63.5543 150.611 64.1529C150.786 61.9629 150.972 59.8824 151.213 57.7471C151.662 56.2365 152.248 54.7703 152.965 53.3671C153.973 51.3565 155.343 49.5487 157.006 48.0345C159.088 46.3563 161.47 45.0892 164.025 44.3005C163.832 44.1938 163.646 44.0769 163.466 43.9501L163.291 43.8625C158.911 45.5598 155.341 47.8812 152.889 52.1079C152.39 52.9727 151.947 53.8688 151.564 54.7906C151.75 53.389 151.947 51.9765 152.177 50.5858C153.272 44.0158 155.068 37.4458 159.218 32.2227C159.133 31.9641 159.064 31.7009 159.01 31.4343C154.706 36.6903 152.735 43.2712 151.618 49.885C151.18 52.4692 150.83 55.0753 150.523 57.6924C150.925 45.7934 150.859 33.8907 150.326 21.9844C150.1 21.9118 149.877 21.8277 149.658 21.7326C150.148 32.4855 150.246 43.2457 149.954 54.0132C149.809 54.0409 149.679 54.1232 149.593 54.2431C149.396 52.513 149.133 50.7939 148.771 49.0966C147.348 42.3405 144.315 33.8542 137.438 30.9306L137.351 31.0839L137.165 31.5328C144.194 34.566 147.019 43.5012 148.366 50.4216C148.807 52.8464 149.092 55.2969 149.22 57.7581C149.031 60.189 148.896 62.6199 148.815 65.0508C148.239 61.3385 147.194 57.7143 145.705 54.265C143.921 50.3011 140.46 44.7166 135.686 44.2677C135.231 44.5329 134.755 44.76 134.263 44.9466C140.187 44.1034 144.216 51.9546 145.935 56.5317C147.291 60.3578 148.209 64.325 148.673 68.3577H148.75C148.642 76.4118 149.122 84.4631 150.184 92.4477C150.272 93.1375 151.367 93.1485 151.279 92.4477C150.217 84.4632 149.737 76.4118 149.845 68.3577H150.304C150.304 67.5145 150.403 66.6714 150.469 65.8282C150.834 65.0769 151.24 64.3458 151.684 63.6382C152.959 61.4604 154.735 59.6175 156.864 58.2618C158.376 57.4349 160.015 56.865 161.714 56.5755C161.749 56.3167 161.842 56.0694 161.988 55.8528C160.262 56.1274 158.586 56.6589 157.017 57.4296C154.872 58.6345 153.05 60.34 151.706 62.4009Z" fill="#378729"/>
<path d="M149.376 95.6892C154.218 95.548 158.04 91.8906 157.912 87.5201C157.785 83.1497 153.756 79.7211 148.914 79.8623C144.072 80.0035 140.25 83.6609 140.378 88.0314C140.505 92.4018 144.534 95.8304 149.376 95.6892Z" fill="#FFB339"/>
<path d="M148.005 95.6779C142.037 91.8016 145.486 82.9321 151.794 80.2822C150.851 80.0142 149.872 79.8923 148.892 79.9209C144.052 80.0632 140.23 83.7205 140.351 88.0896C140.482 92.0425 143.8 95.218 148.005 95.6779Z" fill="#FFA522"/>
<path d="M215.774 72.6391C226.56 78.7164 250.606 92.6667 259.728 97.9665C260.74 98.5555 261.513 99.4808 261.913 100.581C262.313 101.682 262.315 102.888 261.918 103.989L261.743 104.471C261.498 105.154 261.107 105.775 260.596 106.29C260.085 106.805 259.467 107.201 258.786 107.451C258.105 107.701 257.377 107.798 256.654 107.735C255.931 107.672 255.231 107.451 254.603 107.088L210.562 81.64C209.507 81.0308 208.701 80.0675 208.288 78.921C207.876 77.7745 207.882 76.5188 208.307 75.3766C208.569 74.6671 208.982 74.0231 209.517 73.4889C210.053 72.9548 210.698 72.5433 211.408 72.283C212.118 72.0227 212.877 71.9197 213.63 71.9812C214.384 72.0427 215.116 72.2672 215.774 72.6391Z" fill="white"/>
<path d="M222.121 81.9673C222.346 80.6805 221.649 79.4838 220.565 79.2944C219.481 79.105 218.42 79.9946 218.195 81.2813C217.97 82.5681 218.667 83.7648 219.751 83.9542C220.835 84.1437 221.897 83.2541 222.121 81.9673Z" fill="#33BDD3"/>
<path d="M227.591 85.1871C227.816 83.9003 227.119 82.7036 226.035 82.5142C224.95 82.3247 223.889 83.2143 223.664 84.5011C223.44 85.7879 224.136 86.9846 225.221 87.174C226.305 87.3634 227.366 86.4739 227.591 85.1871Z" fill="#33BDD3"/>
<path d="M233.075 88.4199C233.3 87.1332 232.603 85.9365 231.519 85.747C230.434 85.5576 229.373 86.4472 229.148 87.734C228.924 89.0208 229.62 90.2175 230.704 90.4069C231.789 90.5963 232.85 89.7067 233.075 88.4199Z" fill="#33BDD3"/>
<path d="M238.807 91.7739C239.031 90.4872 238.335 89.2905 237.25 89.1011C236.166 88.9116 235.105 89.8012 234.88 91.088C234.655 92.3747 235.352 93.5714 236.436 93.7608C237.521 93.9502 238.582 93.0607 238.807 91.7739Z" fill="#33BDD3"/>
<path d="M244.539 95.1613C244.764 93.8745 244.067 92.6778 242.983 92.4884C241.899 92.299 240.838 93.1885 240.613 94.4753C240.388 95.7621 241.085 96.9588 242.169 97.1482C243.253 97.3376 244.315 96.448 244.539 95.1613Z" fill="#33BDD3"/>
<path d="M250.236 98.4379C250.46 97.1511 249.764 95.9544 248.68 95.765C247.595 95.5756 246.534 96.4651 246.309 97.7519C246.084 99.0387 246.781 100.235 247.865 100.425C248.95 100.614 250.011 99.7246 250.236 98.4379Z" fill="#33BDD3"/>
<path d="M252.087 64.3701C253.148 58.2996 249.43 52.5787 243.782 51.592C238.135 50.6054 232.697 54.7266 231.636 60.7971C230.575 66.8676 234.294 72.5885 239.941 73.5752C245.589 74.5619 251.027 70.4406 252.087 64.3701Z" fill="white"/>
<path d="M245.723 61.941C246.388 59.6593 245.313 57.3389 243.322 56.7581C241.331 56.1773 239.177 57.5561 238.512 59.8377C237.846 62.1193 238.921 64.4397 240.912 65.0205C242.904 65.6013 245.057 64.2226 245.723 61.941Z" fill="#33BDD3"/>
<path d="M232.134 66.7918C232.134 66.7918 235.671 62.8827 240.511 64.4376C242.249 64.9787 243.713 66.1663 244.602 67.7556C245.49 69.3448 245.735 71.2143 245.285 72.9786C245.285 72.9786 241.419 75.4861 236.24 72.0916C236.24 72.1026 232.78 69.8907 232.134 66.7918Z" fill="#33BDD3"/>
<path d="M207.135 84.706C208.251 84.5172 209.349 84.2389 210.42 83.8738C211.602 83.403 207.376 82.5927 207.376 82.5927" fill="#1CA9B7"/>
<path d="M196.601 54.8782C197.954 54.1823 199.461 53.8431 200.981 53.8928C203.04 54.1118 200.718 58.2727 200.718 58.2727" fill="#1CA9B7"/>
<path d="M202.394 54.3526L215.972 62.4556C216.612 62.8405 217.102 63.4321 217.36 64.1328C217.619 64.8335 217.632 65.6014 217.395 66.31L212.369 81.421C211.701 83.4139 210.179 84.706 208.383 83.611L193.809 75.8475C193.178 75.4624 192.695 74.8756 192.439 74.1821C192.182 73.4886 192.167 72.7289 192.396 72.0259L197.598 56.1593C197.75 55.6917 198.006 55.2643 198.346 54.9088C198.686 54.5533 199.102 54.2787 199.562 54.1053C200.023 53.9318 200.516 53.864 201.006 53.9068C201.496 53.9496 201.97 54.102 202.394 54.3526Z" fill="#1CA9B7"/>
<path d="M199.601 55.0643L213.179 63.1673C213.822 63.5506 214.314 64.1415 214.574 64.8423C214.835 65.5431 214.849 66.312 214.614 67.0218L209.588 82.1328C208.92 84.1257 207.398 85.4178 205.602 84.3228L191.028 76.5592C190.396 76.1741 189.914 75.5874 189.657 74.8939C189.401 74.2004 189.386 73.4407 189.615 72.7377L194.816 56.8711C194.969 56.405 195.225 55.9792 195.564 55.6248C195.904 55.2704 196.318 54.9966 196.777 54.8233C197.236 54.65 197.728 54.5817 198.216 54.6234C198.705 54.6651 199.178 54.8158 199.601 55.0643Z" fill="#33BDD3"/>
<path d="M202.755 55.7542C202.755 55.7542 204.945 46.9942 210.53 48.341C216.114 49.6879 211.625 60.9225 211.625 60.9225C211.625 60.9225 211.625 62.0175 214.176 62.4227C214.176 62.4227 219.651 49.2827 212.249 45.8116C204.846 42.3404 200.631 52.6115 200.204 54.484C200.447 54.9318 200.823 55.2938 201.279 55.521C201.736 55.7483 202.251 55.8296 202.755 55.7542Z" fill="#EBEDED"/>
<path d="M202.999 69.543C204.962 69.2653 206.308 67.2978 206.004 65.1484C205.7 62.999 203.862 61.4818 201.898 61.7595C199.934 62.0372 198.589 64.0047 198.893 66.1541C199.196 68.3034 201.035 69.8207 202.999 69.543Z" fill="#EBEDED"/>
<path d="M203.299 64.2689L202.637 64.039C201.928 63.793 201.155 64.1679 200.909 64.8762L197.669 74.2066C197.423 74.915 197.798 75.6887 198.506 75.9347L199.168 76.1646C199.876 76.4106 200.65 76.0358 200.896 75.3274L204.136 65.997C204.382 65.2886 204.007 64.5149 203.299 64.2689Z" fill="#EBEDED"/>
<path d="M130.627 182.665L129.456 181.778L130.496 167.882L136.606 168.101C136.606 168.101 136.299 174.036 137.602 175.492C138.906 176.949 142.585 176.237 142.924 176.379C143.264 176.522 145.716 175.996 146.713 177.19C147.709 178.383 142.738 181.23 140.143 181.635C138.397 181.861 136.625 181.802 134.898 181.46C134.898 181.46 134.613 177.869 133.715 178.175C132.817 178.482 132.478 182.216 132.478 182.216L130.627 182.665Z" fill="#9C4100"/>
<path d="M128.12 138.93C127.616 153.461 127.08 172.394 127.08 172.394C127.08 172.394 130.365 176.905 139.398 174.978C140.362 174.77 142.508 151.61 143.559 139.565C138.527 138.191 133.248 137.974 128.12 138.93Z" fill="#7EC971"/>
<path d="M146.56 194.6L145.388 193.713L146.428 179.818L152.538 180.037C152.538 180.037 152.232 185.972 153.535 187.428C154.838 188.884 158.517 188.173 158.856 188.315C159.196 188.457 161.649 187.932 162.645 189.125C163.642 190.319 158.67 193.166 156.075 193.571C154.329 193.796 152.557 193.737 150.83 193.396C150.83 193.396 150.545 189.804 149.647 190.111C148.75 190.417 148.41 194.151 148.41 194.151L146.56 194.6Z" fill="#053855"/>
<path d="M149.188 141.569C145.17 139.748 140.855 138.672 136.453 138.394C137.197 143.869 137.887 147.603 138.008 147.877C138.303 148.566 143.899 183.092 143.899 183.092C150.469 185.753 158.309 183.53 158.309 183.53C158.309 183.53 155.615 156.593 155.396 152.092C155.396 151.61 155.371 151.125 155.32 150.636C155.22 148.709 154.597 146.847 153.516 145.249C152.435 143.651 150.939 142.379 149.188 141.569Z" fill="#7EC971"/>
<path d="M108.585 149.596C108.585 149.596 119.776 139.467 128.12 138.93C136.464 138.394 148.323 147.044 147.392 152.07C146.461 157.096 130.485 167.893 130.485 167.893" fill="#7EC971"/>
<path d="M131.471 131.517L122.557 125.21C122.199 124.957 121.939 124.587 121.824 124.163C121.708 123.74 121.743 123.289 121.922 122.889L128.24 108.84C128.351 108.594 128.513 108.374 128.716 108.196C128.918 108.017 129.157 107.884 129.415 107.805C129.673 107.726 129.945 107.704 130.213 107.739C130.48 107.774 130.737 107.865 130.967 108.008L140.931 114.216C141.337 114.469 141.633 114.865 141.759 115.326C141.884 115.787 141.831 116.278 141.61 116.702L134.241 130.838C134.117 131.078 133.942 131.289 133.73 131.456C133.518 131.623 133.272 131.742 133.01 131.807C132.747 131.871 132.474 131.878 132.209 131.829C131.943 131.779 131.692 131.672 131.471 131.517Z" fill="#1784AA"/>
<path d="M130.671 131.025L121.725 124.717C121.367 124.464 121.107 124.094 120.991 123.67C120.876 123.247 120.91 122.797 121.09 122.396L127.408 108.347C127.519 108.101 127.681 107.881 127.884 107.703C128.086 107.524 128.324 107.391 128.583 107.313C128.841 107.234 129.113 107.211 129.381 107.246C129.648 107.281 129.905 107.373 130.135 107.515L140.099 113.724C140.505 113.976 140.8 114.372 140.926 114.833C141.052 115.294 140.999 115.786 140.778 116.209L133.409 130.346C133.284 130.581 133.111 130.787 132.901 130.95C132.692 131.114 132.45 131.232 132.191 131.296C131.933 131.36 131.664 131.369 131.402 131.322C131.14 131.275 130.891 131.174 130.671 131.025Z" fill="#29ABE2"/>
<path d="M132.16 130.16L122.13 123.075L128.711 108.446L139.858 115.388L132.16 130.16Z" fill="#E4F5FD"/>
<path d="M127.518 114.654C124.233 116.472 119.009 118.542 115.473 120.951C114.914 121.334 114.082 122.67 114.629 122.473C114.389 122.746 116.677 123.644 116.458 123.94C116.392 124.038 117.936 123.184 118.024 123.217C119.337 123.915 120.864 124.099 122.305 123.732L122.886 123.305L123.028 123.217C123.053 123.174 123.086 123.137 123.127 123.108L123.214 123.042C123.23 122.959 123.277 122.884 123.346 122.834C124.112 122.232 125.798 121.914 125.974 120.896C125.944 120.627 125.862 120.367 125.733 120.129C125.692 120.067 125.677 119.992 125.689 119.919C125.701 119.846 125.74 119.781 125.798 119.735C125.863 119.432 125.866 119.119 125.807 118.814C125.749 118.509 125.631 118.219 125.459 117.961L125.656 117.731C126.589 117.084 127.471 116.366 128.295 115.585C128.385 115.502 128.443 115.389 128.459 115.268V115.213C128.463 115.18 128.463 115.147 128.459 115.114C128.447 115.011 128.409 114.912 128.348 114.827C128.288 114.742 128.207 114.674 128.114 114.628C128.02 114.582 127.916 114.561 127.812 114.565C127.708 114.57 127.607 114.601 127.518 114.654Z" fill="#E4CAA2"/>
<path d="M125.831 118.246C125.579 117.611 125.218 117.578 124.638 117.83C123.486 118.352 122.386 118.983 121.353 119.713C121.178 119.834 121.353 120.107 121.528 119.998C122.174 119.56 124.977 117.49 125.547 118.399C126.116 119.308 124.233 119.932 123.707 120.206L121.692 121.301C121.506 121.399 121.692 121.684 121.867 121.586L123.159 120.918C123.149 120.95 123.149 120.984 123.159 121.016C123.269 121.161 123.398 121.29 123.543 121.399C123.427 121.565 123.354 121.756 123.329 121.957C123.304 122.157 123.328 122.361 123.4 122.549L123.455 122.615C122.9 123.193 122.167 123.569 121.374 123.684C120.581 123.799 119.772 123.647 119.075 123.25C118.911 123.13 118.681 123.36 118.845 123.491C120.159 124.476 122.875 124.192 123.795 122.735C124.001 122.708 124.201 122.645 124.386 122.549C124.983 122.342 125.521 121.993 125.952 121.531C126.07 121.33 126.133 121.101 126.133 120.868C126.133 120.635 126.07 120.407 125.952 120.206V120.151C126.031 120.074 126.094 119.983 126.138 119.881C126.181 119.779 126.203 119.67 126.203 119.56C126.203 119.449 126.181 119.34 126.138 119.239C126.094 119.137 126.031 119.045 125.952 118.968C125.985 118.721 125.943 118.469 125.831 118.246ZM125.689 121.224C125.471 121.526 125.176 121.764 124.835 121.914C124.627 122.035 124.101 122.407 123.893 122.352C123.466 122.243 123.729 121.684 123.893 121.443C124.128 121.352 124.346 121.222 124.539 121.06L125.339 120.556L125.601 120.359C125.679 120.488 125.727 120.632 125.742 120.782C125.757 120.931 125.739 121.082 125.689 121.224ZM124.66 120.611C124.2 120.896 123.827 121.257 123.4 120.742C124.046 120.414 124.693 120.085 125.295 119.702C125.48 119.594 125.64 119.449 125.766 119.275C126.105 119.855 125.01 120.392 124.66 120.611Z" fill="#A77A4E"/>
<path d="M117.597 118.443C117.597 118.443 119.787 118.947 120.006 123.644L118.331 127.816L109.209 123.086C109.209 123.086 111.388 120.348 117.597 118.443Z" fill="#88D3D8"/>
<path d="M139.245 120.644C138.566 122.144 137.887 123.502 137.318 125.024C136.902 124.005 136.518 123.173 136.004 122.199C135.981 122.164 135.955 122.131 135.927 122.1C135.834 121.949 135.693 121.834 135.526 121.773C135.359 121.713 135.177 121.71 135.009 121.766C134.84 121.822 134.696 121.932 134.598 122.08C134.5 122.229 134.456 122.405 134.471 122.582C134.639 123.514 135.013 124.397 135.566 125.166C135.489 125.206 135.418 125.257 135.358 125.319C134.044 126.776 134.361 129.01 134.515 130.795C134.521 130.913 134.557 131.028 134.621 131.128C134.684 131.229 134.773 131.311 134.877 131.367C134.982 131.423 135.099 131.451 135.218 131.449C135.337 131.447 135.453 131.413 135.555 131.353C135.677 131.355 135.798 131.325 135.905 131.265C137.086 130.453 137.93 129.239 138.281 127.849C139.015 125.582 139.979 123.064 139.245 120.644Z" fill="#E4CAA2"/>
<path d="M105.169 120.523L108.454 119.538C109.275 119.658 116.403 122.571 119.404 127.652C119.762 129.201 120.004 130.775 120.126 132.36C120.4 134.474 120.619 136.598 120.718 138.722C120.855 141.04 120.819 143.364 120.608 145.676C120.51 146.661 120.444 147.165 120.269 148.139C119.886 148.471 119.449 148.734 118.977 148.917C109.122 152.344 101.829 146.793 101.533 145.982C101.238 145.172 100.767 133.784 100.526 126.995C100.484 125.557 100.916 124.145 101.755 122.975C102.594 121.806 103.793 120.945 105.169 120.523Z" fill="#88D3D8"/>
<path d="M113.896 108.774C113.896 108.774 116.086 119.943 112.001 121.148C107.917 122.352 103.044 117.698 102.694 115.399C102.344 113.099 108.125 105.051 113.896 108.774Z" fill="#E4CAA2"/>
<path d="M112.297 113.242C112.417 113.056 114.794 112.431 115.286 110.439C115.779 108.446 113.983 105.829 109.866 105.456C105.749 105.084 98.8395 107.329 99.9017 118.169C100.964 129.01 111.87 124.345 112.582 120.885C112.96 118.341 112.863 115.75 112.297 113.242Z" fill="#653200"/>
<path d="M112.297 113.242C112.297 113.242 112.987 116.943 114.487 118.541C115.987 120.14 117.203 123.031 115.363 125.243C113.523 127.455 115.363 128.648 117.958 130.718C120.553 132.787 118.955 141.427 109.571 139.314C100.186 137.2 95.7625 131.539 95.7625 131.539C95.7625 131.539 98.1715 114.654 100.734 110.734" fill="#653200"/>
<path d="M119.404 127.816C119.404 127.816 121.528 134.934 123.652 135.153C125.776 135.372 128.996 132.229 131.262 128.123C132.074 128.038 132.894 128.121 133.672 128.367C134.45 128.612 135.169 129.015 135.785 129.55C136.401 130.085 136.901 130.74 137.253 131.476C137.605 132.212 137.802 133.012 137.832 133.828C137.832 133.828 130.354 148.983 119.447 145.281" fill="#88D3D8"/>
<path d="M134.505 120.27C135.383 118.017 134.524 115.577 132.586 114.822C130.647 114.066 128.364 115.281 127.486 117.535C126.607 119.789 127.467 122.229 129.405 122.984C131.343 123.739 133.627 122.524 134.505 120.27Z" fill="#1784AA"/>
<path d="M128.448 117.775L129.62 117.414L130.113 119.078L133.945 117.709L134.12 118.881L129.456 120.589L128.448 117.775Z" fill="#E4F5FD"/>
<path d="M80.2354 182.095C73.534 173.74 70.457 163.042 70.5884 152.344C70.6796 143.67 74.0884 135.359 80.1149 129.119C85.6447 123.447 93.9886 120.655 101.391 124.498C107.534 127.685 110.512 133.806 112.647 140.08C115.21 147.592 116.075 157.217 125.229 159.538C128.777 160.436 132.511 159.823 136.179 159.538C142.552 159.1 149.319 161.17 151.246 167.959C154.794 180.113 138.446 190.494 129.259 194.414C121.302 197.686 112.54 198.464 104.132 196.645C95.7241 194.827 88.0666 190.498 82.1735 184.231C81.48 183.552 80.834 182.84 80.2354 182.095Z" fill="#FFDE47"/>
<path d="M150.874 168.145C144.37 179.905 123.203 185.205 111.662 184.57C101.183 184.033 94.5581 177.639 95.237 167.05C95.6312 161.225 97.427 155.421 96.9561 149.53C96.0692 139.544 86.5865 131.342 76.9067 133.291C72.7594 139.032 70.498 145.919 70.4352 153.001C70.3038 163.699 73.3698 174.386 80.0822 182.752C80.6808 183.482 81.3049 184.212 81.9546 184.942C87.8477 191.209 95.5052 195.539 103.913 197.357C112.321 199.176 121.084 198.397 129.04 195.126C138.238 191.206 154.575 180.825 151.027 168.671C151.005 168.484 150.929 168.32 150.874 168.145Z" fill="#FCC62D"/>
<path d="M53.9116 38.0152L54.7438 83.9065C54.7542 84.3929 54.8871 84.8688 55.1304 85.2902C55.3736 85.7115 55.7192 86.0646 56.1352 86.3169C56.5512 86.5691 57.0242 86.7122 57.5102 86.7331C57.9963 86.7539 58.4797 86.6517 58.9158 86.436L97.9088 67.0107C98.5552 66.6879 99.0969 66.1883 99.471 65.5701C99.845 64.9518 100.036 64.2401 100.022 63.5177L99.1899 17.6044C99.1859 17.0728 99.0462 16.5511 98.7841 16.0886C98.5219 15.6262 98.1459 15.2384 97.6919 14.962C97.2378 14.6856 96.7206 14.5298 96.1894 14.5093C95.6582 14.4888 95.1306 14.6044 94.6566 14.845L56.025 34.555C55.3836 34.8754 54.8453 35.3698 54.4716 35.9817C54.0978 36.5936 53.9038 37.2982 53.9116 38.0152Z" fill="#1D377D"/>
<path opacity="0.3" d="M93.255 44.9685C85.8309 47.0709 88.4041 55.36 83.0715 59.74C76.5781 65.0727 74.1253 49.885 66.1537 50.8924C56.5944 51.9874 54.7438 83.9614 54.7438 83.9614C56.2549 87.5859 58.9158 86.4909 58.9158 86.4909L100.077 65.9815L99.7593 48.3192C98.0292 46.2606 95.894 44.7057 93.255 44.9685Z" fill="#336E91"/>
</g>
<defs>
<filter id="filter0_d" x="0.883179" y="0.814606" width="342.637" height="282.62" filterUnits="userSpaceOnUse" color-interpolation-filters="sRGB">
<feFlood flood-opacity="0" result="BackgroundImageFix"/>
<feColorMatrix in="SourceAlpha" type="matrix" values="0 0 0 0 0 0 0 0 0 0 0 0 0 0 0 0 0 0 127 0"/>
<feOffset dx="1" dy="21"/>
<feGaussianBlur stdDeviation="5"/>
<feColorMatrix type="matrix" values="0 0 0 0 0 0 0 0 0 0 0 0 0 0 0 0 0 0 0.18 0"/>
<feBlend mode="normal" in2="BackgroundImageFix" result="effect1_dropShadow"/>
<feBlend mode="normal" in="SourceGraphic" in2="effect1_dropShadow" result="shape"/>
</filter>
<linearGradient id="paint0_linear" x1="148.695" y1="193.45" x2="169.39" y2="160.502" gradientUnits="userSpaceOnUse">
<stop stop-color="#FF8E31"/>
<stop offset="1" stop-color="#ED6B21"/>
</linearGradient>
<linearGradient id="paint1_linear" x1="10014.4" y1="12279" x2="10958.1" y2="10501.7" gradientUnits="userSpaceOnUse">
<stop stop-color="#FF8E31"/>
<stop offset="1" stop-color="#ED6B21"/>
</linearGradient>
</defs>
</svg>
