<svg width="89" height="124" viewBox="0 0 89 124" fill="none" xmlns="http://www.w3.org/2000/svg">
<path d="M81.4018 0H7.87662C5.89634 0.0955474 4.01429 1.06933 2.58897 2.73588C1.16364 4.40242 0.294625 6.64526 0.14746 9.03718V12.5054H8.15313e-05V24.9712V24.4802V26.9282V29.3762L7.912e-05 31.8243L0.000191486 30.9167L8.15313e-05 45.9787L0 46.5124V48.9604L8.15313e-05 51.9242V67.7789V73.7244V88.5684L2.5017e-05 88.8777L2.36607e-05 90.5768L1.53719e-05 100.951L1.72708e-05 98.5963L1.3895e-05 100.369C1.3895e-05 102.24 0 98.3537 0 98.3537L5.09382e-06 97.9208L1.92902e-05 96.0448L8.15313e-05 94.5139V115.422C8.15313e-05 120.119 3.86466 123.231 7.72924 123.231H70.6105H89V9.03718C88.884 6.65911 88.0425 4.41789 86.6386 2.74812C85.2347 1.07835 83.3685 0.0990075 81.4018 0ZM76.653 86.4478L14.5836 86.4728C13.9435 86.4106 13.3463 86.059 12.9108 85.4879C12.4752 84.9168 12.2334 84.1682 12.2334 83.391C12.2334 82.6139 12.4752 81.8652 12.9108 81.2941C13.3463 80.7231 13.9435 80.3714 14.5836 80.3093L76.653 80.2843C77.0046 80.2501 77.3582 80.3045 77.6915 80.4438C78.0249 80.5832 78.3308 80.8046 78.59 81.0941C78.8491 81.3837 79.056 81.735 79.1974 82.126C79.3389 82.517 79.4119 82.9392 79.4119 83.366C79.4119 83.7929 79.3389 84.2151 79.1974 84.6061C79.056 84.9971 78.8491 85.3484 78.59 85.638C78.3308 85.9275 78.0249 86.1489 77.6915 86.2882C77.3582 86.4276 77.0046 86.4819 76.653 86.4478ZM76.653 72.7137L14.5836 72.7185C13.9435 72.6563 13.3463 72.3047 12.9108 71.7336C12.4752 71.1626 12.2334 70.4139 12.2334 69.6368C12.2334 68.8596 12.4752 68.111 12.9108 67.5399C13.3463 66.9688 13.9435 66.6172 14.5836 66.555L76.653 66.5501C77.0046 66.516 77.3582 66.5703 77.6915 66.7097C78.0249 66.8491 78.3308 67.0705 78.59 67.36C78.8491 67.6495 79.056 68.0008 79.1974 68.3918C79.3389 68.7828 79.4119 69.2051 79.4119 69.6319C79.4119 70.0587 79.3389 70.481 79.1974 70.872C79.056 71.263 78.8491 71.6143 78.59 71.9038C78.3308 72.1933 78.0249 72.4147 77.6915 72.5541C77.3582 72.6935 77.0046 72.7478 76.653 72.7137ZM76.653 59.2768H14.5836C13.9435 59.2146 13.3463 58.863 12.9108 58.2919C12.4752 57.7208 12.2334 56.9722 12.2334 56.195C12.2334 55.4179 12.4752 54.6693 12.9108 54.0982C13.3463 53.5271 13.9435 53.1754 14.5836 53.1133H76.653C77.0046 53.0791 77.3582 53.1335 77.6915 53.2728C78.0249 53.4122 78.3308 53.6336 78.59 53.9231C78.8491 54.2126 79.056 54.564 79.1974 54.955C79.3389 55.346 79.4119 55.7682 79.4119 56.195C79.4119 56.6219 79.3389 57.0441 79.1974 57.4351C79.056 57.8261 78.8491 58.1774 78.59 58.4669C78.3308 58.7564 78.0249 58.9779 77.6915 59.1172C77.3582 59.2566 77.0046 59.3109 76.653 59.2768ZM76.653 45.8399L13.9062 45.8386C13.2662 45.7765 12.6689 45.4248 12.2334 44.8537C11.7979 44.2827 11.5561 43.534 11.5561 42.7569C11.5561 41.9797 11.7979 41.2311 12.2334 40.66C12.6689 40.0889 13.2662 39.7373 13.9062 39.6751L76.653 39.6764C77.0046 39.6423 77.3582 39.6966 77.6915 39.836C78.0249 39.9754 78.3308 40.1968 78.59 40.4863C78.8491 40.7758 79.056 41.1271 79.1974 41.5181C79.3389 41.9091 79.4119 42.3313 79.4119 42.7582C79.4119 43.185 79.3389 43.6072 79.1974 43.9982C79.056 44.3893 78.8491 44.7406 78.59 45.0301C78.3308 45.3196 78.0249 45.541 77.6915 45.6804C77.3582 45.8197 77.0046 45.8741 76.653 45.8399ZM76.653 32.6805L13.9062 32.6805C13.2662 32.6183 12.6689 32.2667 12.2334 31.6956C11.7979 31.1246 11.5561 30.3759 11.5561 29.5988C11.5561 28.8216 11.7979 28.073 12.2334 27.5019C12.6689 26.9308 13.2662 26.5792 13.9062 26.517H76.653C77.0046 26.4829 77.3582 26.5372 77.6915 26.6766C78.0249 26.8159 78.3308 27.0374 78.59 27.3269C78.8491 27.6164 79.056 27.9677 79.1974 28.3587C79.3389 28.7497 79.4119 29.1719 79.4119 29.5988C79.4119 30.0256 79.3389 30.4478 79.1974 30.8388C79.056 31.2298 78.8491 31.5812 78.59 31.8707C78.3308 32.1602 78.0249 32.3816 77.6915 32.521C77.3582 32.6603 77.0046 32.7147 76.653 32.6805ZM1.3895e-05 102.817L8.15313e-05 103.056V18.1338L1.3895e-05 102.817Z" fill="url(#paint0_linear)"/>
<defs>
<linearGradient id="paint0_linear" x1="44.4997" y1="-1.21582e-07" x2="44.4997" y2="123.231" gradientUnits="userSpaceOnUse">
<stop stop-color="#7890E4"/>
<stop offset="1" stop-color="#2F4AA7"/>
</linearGradient>
</defs>
</svg>
