<svg width="144" height="131" viewBox="0 0 144 131" fill="none" xmlns="http://www.w3.org/2000/svg">
<g clip-path="url(#clip0)" filter="url(#filter0_d)">
<path d="M125.33 107.113H123.372V120.135V123.267L139.959 107.113H138.558H125.33Z" fill="#C7D6E9"/>
<path d="M35.2284 14.848V1.62022C35.1628 1.18631 34.9438 0.79031 34.6111 0.504132C34.2784 0.217955 33.8541 0.0605774 33.4153 0.0605774C32.9764 0.0605774 32.5522 0.217955 32.2195 0.504132C31.8868 0.79031 31.6677 1.18631 31.6021 1.62022V14.7038C30.8508 15.022 30.2108 15.556 29.7633 16.2383C29.3158 16.9205 29.081 17.7203 29.0884 18.5362C29.0884 19.6455 29.5291 20.7093 30.3135 21.4937C31.0979 22.2781 32.1618 22.7188 33.2711 22.7188C34.3804 22.7188 35.4442 22.2781 36.2286 21.4937C37.013 20.7093 37.4537 19.6455 37.4537 18.5362C37.4591 17.776 37.254 17.0291 36.8613 16.3782C36.4686 15.7273 35.9035 15.1977 35.2284 14.848Z" fill="#C7D6E9"/>
<path d="M59.8296 14.6214V1.62022C59.764 1.18631 59.545 0.79031 59.2123 0.504132C58.8796 0.217955 58.4553 0.0605774 58.0165 0.0605774C57.5776 0.0605774 57.1534 0.217955 56.8207 0.504132C56.488 0.79031 56.2689 1.18631 56.2033 1.62022V14.9511C55.5775 15.3124 55.0577 15.8319 54.6961 16.4576C54.3344 17.0832 54.1437 17.7929 54.1429 18.5156C54.1579 19.2586 54.3735 19.9838 54.7669 20.6143C55.1603 21.2448 55.717 21.7571 56.3778 22.0971C57.0387 22.4371 57.7792 22.592 58.5209 22.5455C59.2627 22.4989 59.978 22.2527 60.5912 21.8328C61.2044 21.4129 61.6926 20.835 62.0042 20.1602C62.3157 19.4855 62.439 18.7391 62.3609 18C62.2829 17.2609 62.0064 16.5567 61.5608 15.9619C61.1152 15.3671 60.517 14.904 59.8296 14.6214Z" fill="#C7D6E9"/>
<path d="M84.2453 14.642V1.62022C84.1797 1.18631 83.9607 0.79031 83.628 0.504132C83.2953 0.217955 82.871 0.0605774 82.4322 0.0605774C81.9933 0.0605774 81.569 0.217955 81.2363 0.504132C80.9037 0.79031 80.6846 1.18631 80.619 1.62022V14.9099C79.8163 15.3809 79.1968 16.1097 78.8611 16.9778C78.5255 17.8458 78.4935 18.8019 78.7705 19.6904C79.0475 20.5789 79.6171 21.3474 80.3865 21.871C81.156 22.3945 82.08 22.6421 83.0081 22.5736C83.9363 22.505 84.8139 22.1243 85.4981 21.4934C86.1823 20.8625 86.6327 20.0186 86.7762 19.099C86.9196 18.1795 86.7475 17.2385 86.288 16.4292C85.8285 15.6199 85.1085 14.99 84.2453 14.642Z" fill="#C7D6E9"/>
<path d="M109.403 14.7449V1.62015C109.355 1.17523 109.145 0.763637 108.812 0.464548C108.479 0.165459 108.047 0 107.6 0C107.152 0 106.721 0.165459 106.388 0.464548C106.055 0.763637 105.845 1.17523 105.797 1.62015V14.7862C104.959 15.194 104.284 15.8739 103.882 16.7149C103.48 17.5559 103.375 18.5084 103.584 19.4167C103.793 20.325 104.304 21.1356 105.034 21.716C105.763 22.2965 106.668 22.6125 107.6 22.6125C108.532 22.6125 109.437 22.2965 110.166 21.716C110.895 21.1356 111.406 20.325 111.616 19.4167C111.825 18.5084 111.72 17.5559 111.318 16.7149C110.916 15.8739 110.241 15.194 109.403 14.7862V14.7449Z" fill="#C7D6E9"/>
<path d="M130.11 5.72034H113.05V9.84116C116.511 11.5101 117.274 15.6927 117.171 18.4949C117.231 19.7945 117.027 21.0929 116.571 22.3115C116.115 23.5301 115.417 24.6436 114.518 25.5846C113.62 26.5257 112.54 27.2747 111.344 27.7865C110.148 28.2982 108.86 28.5621 107.559 28.5621C106.258 28.5621 104.97 28.2982 103.774 27.7865C102.578 27.2747 101.498 26.5257 100.599 25.5846C99.701 24.6436 99.0027 23.5301 98.5468 22.3115C98.0909 21.0929 97.8869 19.7945 97.9471 18.4949C97.8441 15.6515 99.3482 11.2834 101.656 9.98538V5.69974H88.2426V9.82055C91.9307 12.2106 92.3634 14.6831 92.3634 18.5979C92.3634 21.1463 91.3525 23.5906 89.5524 25.3945C87.7524 27.1984 85.3102 28.2145 82.7619 28.22C80.2054 28.1878 77.7631 27.1566 75.9572 25.3469C74.1513 23.5371 73.1253 21.0926 73.0986 18.5361C72.9983 16.9483 73.281 15.3596 73.9228 13.9038C74.5647 12.4481 75.5468 11.1678 76.7867 10.1708V5.69974H63.7649V9.82055C65.0966 10.8203 66.1448 12.15 66.806 13.6783C67.4671 15.2066 67.7186 16.8809 67.5355 18.5361C67.5956 19.8358 67.3916 21.1341 66.9357 22.3527C66.4799 23.5713 65.7816 24.6848 64.8831 25.6258C63.9846 26.5669 62.9047 27.3159 61.7085 27.8277C60.5123 28.3395 59.2247 28.6033 57.9237 28.6033C56.6226 28.6033 55.335 28.3395 54.1388 27.8277C52.9426 27.3159 51.8627 26.5669 50.9642 25.6258C50.0657 24.6848 49.3674 23.5713 48.9116 22.3527C48.4557 21.1341 48.2517 19.8358 48.3119 18.5361C48.2048 16.8912 48.5287 15.2469 49.2513 13.7654C49.974 12.284 51.0705 11.0166 52.4327 10.0884V5.69974H39.04V9.94418C40.3897 10.8957 41.4503 12.2015 42.1048 13.7177C42.7592 15.2338 42.9821 16.9013 42.7488 18.5361C42.8089 19.8358 42.6049 21.1341 42.149 22.3527C41.6932 23.5713 40.9949 24.6848 40.0964 25.6258C39.1979 26.5669 38.118 27.3159 36.9218 27.8277C35.7256 28.3395 34.438 28.6033 33.137 28.6033C31.8359 28.6033 30.5483 28.3395 29.3521 27.8277C28.1559 27.3159 27.076 26.5669 26.1775 25.6258C25.279 24.6848 24.5807 23.5713 24.1249 22.3527C23.669 21.1341 23.465 19.8358 23.5251 18.5361C23.5251 15.5073 24.4523 11.5513 27.646 9.96478V5.72034H12.6668C11.5111 5.66064 10.3558 5.84499 9.27608 6.2614C8.19636 6.6778 7.21643 7.31692 6.40009 8.13714C5.58375 8.95737 4.9493 9.94032 4.53803 11.022C4.12676 12.1037 3.9479 13.2599 4.01309 14.4153V112.655C4.01309 117.827 7.49518 123.823 12.6668 123.823H117.748V101.55H140V14.4153C140 9.24364 135.282 5.72034 130.11 5.72034ZM42.3985 101.55H25.668V84.4691H42.3985V101.55ZM42.3985 78.1437H25.668V61.1453H42.3985V78.1437ZM42.3985 55.3144H25.7298V38.5838H42.4603L42.3985 55.3144ZM49.0742 38.5838H65.8253V55.3144H49.136L49.0742 38.5838ZM49.0742 61.4338H65.8253V78.1437H49.136L49.0742 61.4338ZM65.8665 101.55H49.2184V84.4691H65.9283L65.8665 101.55ZM89.6848 101.55H72.4804V84.4691H89.7467L89.6848 101.55ZM89.6848 78.1437H72.4598V61.4338H89.8085L89.6848 78.1437ZM89.6848 55.3144H72.3774V38.6869H89.6848V55.3144ZM113.853 101.55L96.4018 101.715V84.4691H113.853V101.55ZM113.709 78.1437H96.4018V61.3101L113.668 61.1453L113.709 78.1437ZM113.709 55.3144H96.4018V38.8311L113.73 38.6457L113.709 55.3144Z" fill="url(#paint0_linear)"/>
</g>
<defs>
<filter id="filter0_d" x="0" y="0" width="144" height="130.4" filterUnits="userSpaceOnUse" color-interpolation-filters="sRGB">
<feFlood flood-opacity="0" result="BackgroundImageFix"/>
<feColorMatrix in="SourceAlpha" type="matrix" values="0 0 0 0 0 0 0 0 0 0 0 0 0 0 0 0 0 0 127 0"/>
<feOffset dy="4"/>
<feGaussianBlur stdDeviation="2"/>
<feColorMatrix type="matrix" values="0 0 0 0 0 0 0 0 0 0 0 0 0 0 0 0 0 0 0.25 0"/>
<feBlend mode="normal" in2="BackgroundImageFix" result="effect1_dropShadow"/>
<feBlend mode="normal" in="SourceGraphic" in2="effect1_dropShadow" result="shape"/>
</filter>
<linearGradient id="paint0_linear" x1="72" y1="5.69974" x2="72" y2="123.823" gradientUnits="userSpaceOnUse">
<stop stop-color="#7890E4"/>
<stop offset="1" stop-color="#2F4AA7"/>
</linearGradient>
<clipPath id="clip0">
<rect width="136" height="122.4" fill="white" transform="translate(4)"/>
</clipPath>
</defs>
</svg>
