<svg width="30" height="28" viewBox="0 0 30 28" fill="none" xmlns="http://www.w3.org/2000/svg">
<path d="M22.21 8.72001L17.2 15C16.8629 15.423 16.4402 15.7699 15.9597 16.0182C15.4792 16.2664 14.9517 16.4104 14.4116 16.4406C13.8716 16.4708 13.3313 16.3866 12.8261 16.1935C12.3209 16.0004 11.8622 15.7027 11.48 15.32V15.32C10.7594 14.5982 10.3547 13.6199 10.3547 12.6C10.3547 11.5801 10.7594 10.6018 11.48 9.88001L17.4 3.91001C18.675 2.6368 20.4032 1.92166 22.205 1.92166C24.0068 1.92166 25.735 2.6368 27.01 3.91001C28.2832 5.18499 28.9984 6.91317 28.9984 8.71501C28.9984 10.5169 28.2832 12.245 27.01 13.52L16.44 24.09C15.165 25.3632 13.4368 26.0784 11.635 26.0784C9.83316 26.0784 8.10498 25.3632 6.83 24.09L3 20.25C1.72679 18.975 1.01165 17.2469 1.01165 15.445C1.01165 13.6432 1.72679 11.915 3 10.64L8.75 4.87001" stroke="#0C216B" stroke-width="2" stroke-linecap="round" stroke-linejoin="round"/>
</svg>
